<svg xmlns="http://www.w3.org/2000/svg" viewBox="0 0 300 200" width="300" height="200">
  <!-- Blue background rectangle -->
  <rect x="0" y="0" width="300" height="200" fill="#0066b3" rx="4"/>
  <!-- "weg" text in white blocky style -->
  <!-- W -->
  <polygon points="20,40 44,40 55,130 66,40 90,40 78,160 34,160" fill="white"/>
  <!-- E -->
  <rect x="100" y="40" width="80" height="25" fill="white"/>
  <rect x="100" y="87" width="65" height="25" fill="white"/>
  <rect x="100" y="135" width="80" height="25" fill="white"/>
  <rect x="100" y="40" width="25" height="120" fill="white"/>
  <!-- G -->
  <path d="M200,40 L280,40 L280,65 L225,65 L225,95 L280,95 L280,160 L200,160 Q185,160 180,145 L180,55 Q185,40 200,40Z" fill="white"/>
  <rect x="245" y="95" width="35" height="25" fill="white"/>
</svg>